<svg width="32" height="32" viewBox="0 0 32 32" fill="none" xmlns="http://www.w3.org/2000/svg">
<g id="Discord">
<path id="Vector" d="M25.2412 7.51092C23.5416 6.73106 21.7189 6.15648 19.8133 5.8274C19.7786 5.82105 19.7439 5.83692 19.726 5.86867C19.4916 6.28558 19.232 6.82947 19.0502 7.25697C17.0005 6.9501 14.9614 6.9501 12.9538 7.25697C12.7719 6.81995 12.5028 6.28558 12.2674 5.86867C12.2495 5.83798 12.2148 5.82211 12.1802 5.8274C10.2755 6.15543 8.45293 6.73 6.75223 7.51092C6.73752 7.51727 6.72491 7.52785 6.7165 7.54161C3.25941 12.7065 2.31236 17.7443 2.77695 22.7198C2.77905 22.7441 2.79271 22.7674 2.81163 22.7822C5.09254 24.4573 7.30196 25.4742 9.4704 26.1482C9.50508 26.1588 9.54187 26.1461 9.56395 26.1175C10.0769 25.417 10.5341 24.6784 10.9262 23.9017C10.9493 23.8562 10.9272 23.8023 10.8799 23.7843C10.1547 23.5092 9.46409 23.1737 8.79979 22.7928C8.74723 22.7621 8.74303 22.687 8.79138 22.651C8.93118 22.5462 9.07098 22.4372 9.20447 22.3272C9.22864 22.3071 9.26228 22.3029 9.29066 22.3156C13.6549 24.3081 18.3796 24.3081 22.6923 22.3156C22.7206 22.3018 22.7543 22.306 22.7795 22.3261C22.913 22.4362 23.0528 22.5462 23.1936 22.651C23.242 22.687 23.2388 22.7621 23.1863 22.7928C22.522 23.1811 21.8314 23.5092 21.1051 23.7832C21.0578 23.8012 21.0368 23.8562 21.0599 23.9017C21.4604 24.6774 21.9176 25.416 22.4211 26.1165C22.4421 26.1461 22.4799 26.1588 22.5146 26.1482C24.6936 25.4742 26.903 24.4573 29.1839 22.7822C29.2039 22.7674 29.2165 22.7452 29.2186 22.7208C29.7746 16.9687 28.2873 11.9721 25.2759 7.54267C25.2685 7.52785 25.2559 7.51727 25.2412 7.51092ZM11.5779 19.6903C10.264 19.6903 9.18134 18.484 9.18134 17.0026C9.18134 15.5212 10.243 14.3149 11.5779 14.3149C12.9233 14.3149 13.9954 15.5317 13.9744 17.0026C13.9744 18.484 12.9128 19.6903 11.5779 19.6903ZM20.4387 19.6903C19.1248 19.6903 18.0422 18.484 18.0422 17.0026C18.0422 15.5212 19.1038 14.3149 20.4387 14.3149C21.7841 14.3149 22.8562 15.5317 22.8352 17.0026C22.8352 18.484 21.7841 19.6903 20.4387 19.6903Z" fill="#EEEEF0"/>
</g>
</svg>
