<svg width="32" height="32" viewBox="0 0 32 32" fill="none" xmlns="http://www.w3.org/2000/svg">
<g id="Google">
<path id="Vector" d="M20.1821 10.8691C19.0188 9.74606 17.5392 9.17424 15.8912 9.17424C12.9678 9.17424 10.4933 11.1679 9.61063 13.8467C9.38614 14.5267 9.25859 15.2531 9.25859 16C9.25859 16.747 9.38613 17.4733 9.61061 18.1533C10.4933 20.8321 12.9678 22.8257 15.8912 22.8257C17.4014 22.8257 18.6872 22.4239 19.6923 21.7439C20.881 20.9403 21.6719 19.74 21.9321 18.3234H15.8912V13.9394H26.4627C26.5953 14.6812 26.6667 15.454 26.6667 16.2576C26.6667 19.7091 25.4423 22.6146 23.3198 24.5876C21.4627 26.3185 18.9218 27.3333 15.8912 27.3333C11.5035 27.3333 7.70759 24.7936 5.86065 21.0897C5.10044 19.5597 4.66675 17.8288 4.66675 16C4.66675 14.1712 5.10042 12.4403 5.86063 10.9103C7.70757 7.20637 11.5035 4.66666 15.8912 4.66666C18.9168 4.66666 21.4576 5.78969 23.4015 7.61848L20.1821 10.8691Z" fill="#EEEEF0"/>
</g>
</svg>
