<svg width="20" height="21" viewBox="0 0 20 21" fill="none" xmlns="http://www.w3.org/2000/svg">
<g id="Vector">
<g id="Vector_2">
<path d="M10 14.498C12.2091 14.498 14 12.7071 14 10.498C14 8.28885 12.2091 6.49799 10 6.49799C7.79086 6.49799 6 8.28885 6 10.498C6 12.7071 7.79086 14.498 10 14.498Z" fill="#1E1F24"/>
<path d="M10 1.49799V3.49799V1.49799ZM10 17.502V19.502V17.502ZM3 10.498H1H3ZM19 10.498H17H19ZM17 3.49799L15 5.49799L17 3.49799ZM3 3.49799L5 5.49799L3 3.49799ZM5 15.498L3 17.498L5 15.498ZM17 17.498L15 15.498L17 17.498Z" fill="#1E1F24"/>
<path d="M10 1.49799V3.49799M10 17.502V19.502M3 10.498H1M19 10.498H17M17 3.49799L15 5.49799M3 3.49799L5 5.49799M5 15.498L3 17.498M17 17.498L15 15.498M14 10.498C14 12.7071 12.2091 14.498 10 14.498C7.79086 14.498 6 12.7071 6 10.498C6 8.28885 7.79086 6.49799 10 6.49799C12.2091 6.49799 14 8.28885 14 10.498Z" stroke="#1E1F24" stroke-width="1.5" stroke-linecap="round" stroke-linejoin="round"/>
</g>
</g>
</svg>
