<svg width="32" height="32" viewBox="0 0 32 32" fill="none" xmlns="http://www.w3.org/2000/svg">
<g id="Spotify">
<path id="Vector" d="M23.0985 14.6383C19.2304 12.3411 12.8499 12.1299 9.15732 13.2507C8.56437 13.4306 7.93731 13.0958 7.75762 12.5029C7.57793 11.9096 7.91237 11.283 8.50576 11.1027C12.7446 9.81594 19.7911 10.0646 24.2441 12.7079C24.7774 13.0245 24.9524 13.7133 24.6363 14.2458C24.3199 14.7791 23.6305 14.9549 23.0985 14.6383ZM22.9718 18.0407C22.7004 18.481 22.1246 18.6192 21.6849 18.3488C18.46 16.3665 13.5426 15.7924 9.72735 16.9503C9.23255 17.0999 8.70995 16.8209 8.55978 16.3271C8.41061 15.8323 8.68975 15.3107 9.18354 15.1603C13.542 13.8378 18.9601 14.4783 22.664 16.7545C23.1038 17.0253 23.2422 17.6015 22.9718 18.0407ZM21.5034 21.3082C21.2878 21.6619 20.8274 21.7727 20.475 21.5571C17.657 19.8349 14.1102 19.446 9.93312 20.4C9.5306 20.4923 9.12952 20.2401 9.03767 19.8376C8.94553 19.4352 9.19673 19.034 9.60024 18.9421C14.1712 17.8972 18.0923 18.3469 21.2553 20.2797C21.6079 20.495 21.719 20.9557 21.5034 21.3082ZM16.0001 4C9.37269 4 4 9.37258 4 15.9999C4 22.6279 9.37269 28 16.0001 28C22.6276 28 28 22.6279 28 15.9999C28 9.37258 22.6276 4 16.0001 4Z" fill="#EEEEF0"/>
</g>
</svg>
