<svg width="32" height="32" viewBox="0 0 32 32" fill="none" xmlns="http://www.w3.org/2000/svg">
<g id="TikTok">
<path id="Vector" d="M13.3198 23.0119C15.0997 23.0119 16.5427 21.7376 16.5427 19.789V5.33334H20.408C20.1912 7.96965 22.8119 10.5163 25.7021 10.458V14.0926C23.2304 14.0926 21.1286 13.0475 20.397 12.4675V19.789C20.397 23.0119 17.8615 26.6667 13.3198 26.6667C8.77798 26.6667 6.29785 23.0119 6.29785 19.789C6.29785 15.24 11.1118 12.6018 14.3001 13.2466V16.9487C14.1397 16.892 13.7261 16.8081 13.3738 16.8081C11.579 16.7419 10.0968 18.1976 10.0968 19.789C10.0968 21.569 11.5398 23.0119 13.3198 23.0119Z" fill="#EEEEF0"/>
</g>
</svg>
